<svg width="46" height="45" viewBox="0 0 46 45" fill="none" xmlns="http://www.w3.org/2000/svg">
<g clip-path="url(#clip0_177_1779)">
<path d="M6.29298 7.3501V37.7251C2.61798 33.6751 0.367981 28.3501 0.367981 22.5001C0.367981 16.6501 2.61798 11.3251 6.29298 7.3501Z" fill="white"/>
<path d="M8.69298 10.6499L21.668 36.6749H8.69298V10.6499Z" fill="white"/>
<path d="M22.868 33.75L10.118 8.32495H35.618L22.868 33.75Z" fill="white"/>
<path d="M22.868 0C28.718 0 34.043 2.25 38.018 5.925H7.71799C11.693 2.25 17.018 0 22.868 0Z" fill="white"/>
<path d="M37.043 36.6749H24.068L37.043 10.6499V36.6749Z" fill="white"/>
<path d="M38.018 39.075C34.043 42.75 28.718 45 22.868 45C17.018 45 11.693 42.75 7.71799 39.075H38.018Z" fill="white"/>
<path d="M39.443 37.6501V7.3501C43.118 11.3251 45.368 16.6501 45.368 22.5001C45.368 28.3501 43.118 33.6751 39.443 37.6501Z" fill="white"/>
<path d="M8.69298 10.6499L21.668 36.6749H8.69298V10.6499Z" fill="white"/>
<path d="M22.868 33.75L10.118 8.32495H35.618L22.868 33.75Z" fill="white"/>
<path d="M24.068 36.6749L37.043 10.6499V36.6749H24.068Z" fill="white"/>
<path d="M10.118 8.32495H35.618L22.868 33.75L10.118 8.32495Z" fill="white"/>
</g>
<defs>
<clipPath id="clip0_177_1779">
<rect width="45" height="45" fill="white" transform="translate(0.367981)"/>
</clipPath>
</defs>
</svg>
